<svg width="32" height="32" viewBox="0 0 200 200" xmlns="http://www.w3.org/2000/svg">
  <path d="M67.149 71.631c0 13.04-10.55 23.61-23.564 23.61S20.021 84.67 20.021 71.631c0-13.04 10.55-23.611 23.564-23.611 13.014.001 23.564 10.572 23.564 23.611zm9.289 56.737c0-13.015 10.567-23.611 23.564-23.611 12.996 0 23.564 10.596 23.564 23.611s-10.568 23.61-23.564 23.61c-12.998 0-23.564-10.596-23.564-23.61zm79.977-80.347c-12.998 0-23.564 10.596-23.564 23.611s10.567 23.61 23.564 23.61c12.996 0 23.564-10.596 23.564-23.61.001-13.015-10.568-23.611-23.564-23.611zm23.557 80.019v.26l.048.03v.5c-.009.33-.03.66-.048.99-.011.09-.011.17-.011.25v.09c-.03.45-.069.89-.139 1.319v.06l-.013.074a.654.654 0 0 0-.017.125v.001c-.05.339-.1.679-.16 1.018-.011.07-.02.14-.041.21l-.05.25-.03.16c-.039.22-.089.439-.139.659v.001c-.011.051-.026.099-.039.145l-.032.105-.069.25-.05.18c-.05.19-.1.38-.16.56-.015.05-.033.1-.05.15-.017.05-.035.1-.05.15l-.08.23-.039.12c-.037.115-.076.23-.115.343-.026.074-.052.146-.074.217-.041.11-.08.22-.121.32l-.089.22-.061.15-.084.213a5.719 5.719 0 0 1-.115.287c-.026.05-.048.1-.071.15l-.069.15-.1.21-.08.19c-.028.058-.052.117-.078.175a2.607 2.607 0 0 1-.123.265c-.03.055-.059.112-.089.17-.03.057-.059.115-.089.17l-.091.18-.08.15c-.08.16-.16.31-.24.46-.06.11-.13.23-.199.34l-.1.17-.06.1-.281.46c-.069.11-.149.22-.219.33l-.11.16-.071.11c-.099.15-.199.3-.309.45l-.27.36-.091.13c-.119.17-.249.34-.379.5-.089.12-.19.24-.29.359v.001l-.08.1-.039.04a8.53 8.53 0 0 1-.391.47 4.302 4.302 0 0 1-.193.215l-.097.105-.1.11c-.149.16-.29.32-.45.48-.086.092-.175.18-.27.272-.048.048-.099.096-.149.148-.151.15-.311.299-.471.449v.001c-.065.06-.13.118-.195.175-.065.058-.13.115-.195.175l-.048.05c-.171.15-.331.29-.5.43-.08.06-.158.123-.234.185a8.338 8.338 0 0 1-.236.185c-.169.14-.34.27-.519.4-.08.06-.16.118-.24.175-.08.058-.16.115-.24.175-.171.12-.35.25-.541.37-.099.068-.201.132-.305.198a9.08 9.08 0 0 0-.193.122 23.934 23.934 0 0 1-1.641.95l-.539.27c-.19.1-.391.19-.59.28l-.275.12-.275.12c-.21.09-.409.17-.619.25l-.569.21-.631.21c-.19.06-.379.12-.58.18l-.32.09-.32.09c-.19.05-.389.1-.588.149h-.002c-.147.04-.294.071-.439.102l-.221.048-.305.06-.305.06c-.219.04-.448.08-.67.11l-.309.045-.311.045c-.231.03-.45.05-.679.07l-.21.022a6.75 6.75 0 0 1-.42.038c-.231.02-.459.03-.74.04-.199.01-.389.02-.59.02h-.791a9.03 9.03 0 0 1-.285-.005c-.095-.002-.19-.005-.285-.005-.203-.009-.398-.027-.599-.045l-.05-.005h-.071c-.089-.01-.19-.02-.279-.02h-.141c-.06-.01-.13-.02-.19-.02a1.613 1.613 0 0 0-.229-.02c-.017-.003-.033-.008-.05-.012a.39.39 0 0 0-.1-.018c-.13-.03-.26-.05-.409-.07-10.308-1.369-18.587-9.486-20.136-19.742-.019-.112-.03-.228-.041-.342-.006-.06-.011-.12-.019-.178-.011-.078-.019-.156-.028-.238a5.897 5.897 0 0 0-.022-.202l-.035-.244a4.964 4.964 0 0 1-.024-.156c-.002-.007-.004-.014-.004-.021a.517.517 0 0 1-.017-.118c0-.045-.002-.09-.004-.135a1.524 1.524 0 0 1-.006-.135c-.041-.52-.059-1.09-.059-1.739 0-.06-.006-.12-.011-.18-.004-.06-.009-.12-.009-.18v-.05c.02-2.649-.29-5.318-.95-7.937-1.419-5.488-4.358-10.586-8.517-14.744l-2.87-2.879-.13-.13-.149-.12c-5.77-4.548-12.877-7.047-20.006-7.047h-.48c-7.127 0-14.236 2.509-20.004 7.047l-.151.12-.13.13-2.868 2.879c-4.159 4.158-7.1 9.256-8.528 14.764a31.979 31.979 0 0 0-.939 7.907v.05c-.011.12-.011.25-.011.37 0 .65-.02 1.21-.059 1.719-.009.1-.009.19-.009.29a.457.457 0 0 0-.02.12c-.011.07-.02.142-.03.215l-.03.215a14.9 14.9 0 0 1-.02.21c-.007.07-.015.14-.02.21l-.019.184c-.011.114-.022.23-.041.346-1.549 10.256-9.828 18.373-20.146 19.742-.095.007-.186.023-.277.039l-.123.021-.046.011c-.035.009-.071.019-.113.019-.069.01-.139.02-.219.02-.03 0-.06.005-.089.01-.032.005-.061.01-.091.01h-.139c-.089 0-.19.01-.281.02h-.069a7.167 7.167 0 0 0-.253.018c-.13.011-.26.022-.387.022-.19.02-.379.02-.571.02h-.789c-.095 0-.186-.004-.285-.009-.108-.005-.223-.011-.355-.011a17.223 17.223 0 0 0-.231-.008 7.79 7.79 0 0 1-.459-.022l-.631-.06c-.229-.02-.45-.04-.679-.07l-.311-.045-.309-.045c-.221-.03-.45-.07-.671-.11-.208-.04-.409-.08-.608-.12l-.66-.15-.296-.075-.294-.075a69.21 69.21 0 0 0-.322-.09l-.318-.09-.29-.09a25.92 25.92 0 0 1-.29-.09c-.104-.035-.21-.072-.314-.11-.106-.037-.21-.075-.316-.11-.19-.06-.379-.13-.569-.21-.21-.08-.409-.16-.61-.25-.089-.04-.182-.08-.275-.12l-.275-.12c-.13-.059-.262-.123-.392-.185a17.702 17.702 0 0 0-.197-.095l-.539-.27c-.199-.1-.391-.2-.58-.31-.084-.05-.171-.1-.259-.15s-.177-.1-.26-.15c-.19-.11-.37-.22-.56-.34-.171-.1-.34-.21-.5-.32a18.7 18.7 0 0 1-.27-.185 16.12 16.12 0 0 0-.27-.185c-.08-.06-.16-.118-.24-.175-.08-.058-.16-.115-.24-.175-.18-.13-.361-.26-.53-.4l-.459-.37a27.56 27.56 0 0 0-.227-.194c-.089-.077-.182-.155-.273-.236-.139-.12-.29-.25-.441-.39a5.522 5.522 0 0 1-.333-.31c-.056-.055-.113-.111-.177-.17a6.89 6.89 0 0 1-.389-.38l-.45-.48-.06-.07-.339-.363c-.149-.17-.29-.34-.43-.51l-.1-.12-.27-.33c-.06-.075-.117-.152-.175-.23-.058-.078-.115-.155-.175-.23l-.06-.08-.08-.11c-.091-.11-.18-.23-.27-.36-.11-.15-.21-.3-.311-.45l-.06-.1-.1-.15a5.23 5.23 0 0 1-.219-.33l-.27-.45-.08-.13-.1-.17-.052-.086c-.046-.076-.095-.155-.138-.234-.041-.075-.08-.152-.121-.23l-.119-.23-.08-.15-.1-.19-.047-.085a2.62 2.62 0 0 1-.123-.234c-.08-.16-.151-.32-.221-.48l-.069-.15-.1-.21a2.182 2.182 0 0 1-.046-.102c-.033-.071-.067-.139-.093-.207-.071-.16-.13-.32-.19-.48l-.071-.18-.08-.19a5.94 5.94 0 0 0-.06-.16c-.02-.052-.041-.105-.06-.16-.032-.085-.058-.17-.086-.255-.028-.085-.056-.17-.086-.255l-.06-.19-.08-.24-.089-.27-.151-.54-.05-.2-.071-.26c-.03-.09-.048-.17-.069-.25-.05-.21-.1-.43-.139-.64l-.041-.17-.05-.25c-.004-.026-.011-.054-.017-.084a1.13 1.13 0 0 1-.022-.116c-.061-.34-.11-.68-.16-1.02-.011-.08-.02-.15-.041-.23v-.04a24.67 24.67 0 0 1-.134-1.267l-.006-.053v-.1c-.009-.08-.009-.16-.009-.25l-.017-.246a10.711 10.711 0 0 1-.033-.754v-.73c0-.16 0-.33.009-.49v-.17c.02-.5.05-.95.11-1.379v-.1l.009-.051c.017-.1.032-.194.041-.288.02-.2.05-.39.08-.58l.02-.1c.08-.53.169-1.05.27-1.509.03-.13.06-.26.1-.42.139-.59.299-1.17.48-1.729l.039-.11.02-.07c1.949-5.998 6.309-11.046 11.956-13.854l.112-.05.03-.02c.549-.27 1.129-.53 1.719-.76l.13-.05.16-.06a24.425 24.425 0 0 1 1.713-.567c.134-.037.266-.075.417-.112.459-.13.919-.24 1.38-.33.259-.06.519-.11.779-.15.13-.02.249-.04.379-.07.017-.003.033-.008.05-.012a.39.39 0 0 1 .1-.018c.089-.02.18-.03.27-.03l.028-.002a5.28 5.28 0 0 0 .381-.038l.201-.03.199-.03c.05-.01.1-.02.151-.02h-.02c.121-.01.24-.02.37-.02.11-.01.231-.03.35-.05h.091a42.732 42.732 0 0 0 24.572-9.546l.13-.11.121-.12c6.108-6.198 9.547-14.544 9.438-22.931v-.28a20.17 20.17 0 0 1 .08-2.139v-.1c.004-.028.007-.055.013-.081.007-.049.017-.097.017-.149.05-.55.119-1.1.21-1.629l.03-.2.02-.15c.11-.57.24-1.16.4-1.769l.08-.3A23.577 23.577 0 0 1 89.89 50.379l.06-.04h.009c1.14-.55 2.34-1 3.56-1.349.151-.04.29-.08.43-.12.61-.16 1.161-.29 1.689-.39l.21-.03.231-.04c.489-.08.989-.15 1.49-.2.089-.01.18-.02.29-.04.05-.01.099-.01.16-.01.054-.003.108-.008.162-.013.102-.009.203-.017.307-.017l.18-.02h.19c.058-.003.115-.008.171-.013.11-.009.218-.017.329-.017h1.369l.154.011c.113.009.229.019.346.019l.18.02h.19l.469.03h.151c.1.02.201.03.299.04.511.05 1.01.12 1.501.2l.229.04.21.03c.53.1 1.081.23 1.68.39.097.019.188.046.281.074a22.96 22.96 0 0 1 3.748 1.405l.071.03a23.599 23.599 0 0 1 12.507 14.944l.03.1.05.19c.16.63.29 1.21.4 1.789l.02.13.03.21c.089.54.16 1.09.21 1.599l.03.24v.11c.05.67.071 1.389.071 2.149v.29c-.112 8.377 3.328 16.723 9.438 22.921l.119.12.13.11a42.785 42.785 0 0 0 24.563 9.556h.11c.121.02.24.04.361.04.119.02.231.02.379.02.041.01.08.02.121.02l.205.03.205.03c.139.02.27.03.409.04l.272.03.149.03c.13.03.251.05.37.07.27.04.53.09.8.15.45.09.91.2 1.36.32l.059.02a22.338 22.338 0 0 1 2.07.67l.169.06.141.05c.578.23 1.159.48 1.709.75l.069.04.11.05c5.619 2.809 9.968 7.847 11.917 13.815l.061.19c.179.57.339 1.16.48 1.759l.089.38c.1.48.19 1 .281 1.539v.05c.03.2.059.41.08.6.009.12.03.23.059.35v.08c.039.47.08.95.1 1.459v.571z" fill="white" clip-rule="evenodd" fill-rule="evenodd"/>
</svg>
